<svg id="Layer_1" data-name="Layer 1" xmlns="http://www.w3.org/2000/svg" xmlns:xlink="http://www.w3.org/1999/xlink" viewBox="0 0 532.96 257.61"><defs><style>.cls-1{fill:url(#New_Gradient_3);}.cls-2{fill:#fc0;}.cls-3{fill:#00428b;}.cls-4{fill:#fff;}.cls-5{fill:#324f9e;}</style><linearGradient id="New_Gradient_3" x1="-333.25" y1="-140.26" x2="-333.25" y2="24.43" gradientTransform="translate(702.85 422.89) scale(1.2)" gradientUnits="userSpaceOnUse"><stop offset="0" stop-color="#0098c4"/><stop offset="1" stop-color="#c9e3f0"/></linearGradient></defs><path class="cls-1" d="M59.61,358s4.5,7.56,4.52,7.55l7.93-4,1.11-.56,36.36,81,3.49,7.78,8.15-2.69,19.69-6.52,8.62-2.85L147.2,429l-10.45-40.13a86.42,86.42,0,0,0,8.4-7.16,36.62,36.62,0,0,0,1,14.33,33.31,33.31,0,0,0,17.95,21.52c9.55,4.5,21.21,4.39,32-.3a47,47,0,0,0,14.29-9.8l1.48,16L246.34,418l0-31,72,35V387.41a58.72,58.72,0,0,0,8.82-1.5,73.82,73.82,0,0,0,20.73-8.4l-3,18.57,38.83,5.74,2.15-14.05L396,406.45l6.19-12L404.42,414l44,7.33-2.34-14.83a40,40,0,0,0,18.51-2.62,44.86,44.86,0,0,0,4.28-2l-1.77,15.83,29.31,3.81.24,12L527.22,443,567,322.36l-41.43-9.64L521.66,329,518,311l-48.69-10.22.36,27.11,7.33,1.56-.55,4.91-.21-.11c-9.07-4.74-20.34-5.1-31-1a44.34,44.34,0,0,0-9.86,5.43l-7.32-46.38-32.38.34-.91,5.34-34.06.35-3.9,23.95L354,318.88c-8.26-10.1-20.22-15.58-33.48-15.72l28.92-15.88-20.17-30-36.46,42.47,6.31,7.64a48.18,48.18,0,0,0-14.8,9.58L253.1,289.55l-10.95,21.11.43-20.17L193.7,306.63,195,333l8.32-2.26L204.51,344c-9.5-4.18-20.91-4-31.5.64a46.24,46.24,0,0,0-8.77,5.09c1.83-8.14,1.4-16.15-1.69-23.26a41.28,41.28,0,0,0-17.93-19.62,42.45,42.45,0,0,0-19-6.55c-16.9-2.79-37.2.47-57.17,9.19a141.83,141.83,0,0,0-20.39,10.87l-7.81,5.06L45,333.37m217.27,19.05,9.26-9.11a44.32,44.32,0,0,0,.68,12.87Zm90.86-7.07-6.35-5.67,6.79-7.32,2-2.19Z" transform="translate(-40.27 -247.6)"/><path class="cls-2" d="M531.71,305.05l-4,16.25-3.64-18-48.79-10.73.36,27.12,7.34,1.63-.55,4.91-.21-.12c-9.09-4.83-20.39-5.31-31-1.3a44.13,44.13,0,0,0-9.88,5.33L434,283.68H401.56l-.9,5.33H366.52l-3.91,23.9-2.84-3.49a43.66,43.66,0,0,0-33.55-16.07l29-15.57L335,247.6l-36.54,42.09,6.32,7.71a47.49,47.49,0,0,0-14.83,9.43L258.62,279l-11,21,.43-20.17-49,15.63,1.24,26.33,8.34-2.18L209.92,333c-9.51-4.27-20.95-4.19-31.57.31a45.54,45.54,0,0,0-8.79,5c1.84-8.13,1.41-16.14-1.69-23.28a41.9,41.9,0,0,0-18-19.81,43,43,0,0,0-19-6.75c-16.93-3-37.28.08-57.3,8.59a140.6,140.6,0,0,0-20.42,10.66l-7.83,5,4.72,8,14.66,24.78s4.51,7.61,4.53,7.6l8-3.88,1.1-.54L114.73,430l3.51,7.82,8.16-2.61,19.73-6.31,8.64-2.76-2.28-8.78L142,377.14a83.54,83.54,0,0,0,8.42-7.08,36.69,36.69,0,0,0,1,14.34,33.77,33.77,0,0,0,18,21.71c9.57,4.6,21.25,4.61,32,0a46.49,46.49,0,0,0,14.31-9.66l1.49,16,34.54-5.07,0-31L324,412.14V377.58a58.62,58.62,0,0,0,8.84-1.41A73.36,73.36,0,0,0,353.6,368l-3,18.54,38.92,6.14,2.15-14,10.17,18.78,6.19-12,2.27,19.65,44.14,7.79-2.35-14.85a40.13,40.13,0,0,0,18.56-2.44,43.38,43.38,0,0,0,4.29-1.91l-1.78,15.82,29.37,4.11.24,12,30.61,9.63,39.88-120.17ZM131.4,350c-1.42-4.72-4.49-14.89-4.49-14.89s-.62-2.19-1.33-4.72a12.66,12.66,0,0,1,7.7.84,6.64,6.64,0,0,1,3.83,4.6C138.15,341.66,136.13,345.82,131.4,350Zm136.39-8,9.28-9a44.32,44.32,0,0,0,.68,12.87Zm42.57-3.66A12.26,12.26,0,0,1,325.55,321Zm48.49-2.46-6.37-5.73,6.81-7.25,2-2.17Z" transform="translate(-40.27 -247.6)"/><path class="cls-3" d="M531.71,305.05l-4,16.25-3.64-18-48.79-10.73.36,27.12,7.34,1.63-.55,4.91-.21-.12c-9.09-4.83-20.39-5.31-31-1.3a44.13,44.13,0,0,0-9.88,5.33L434,283.68H401.56l-.9,5.33H366.52l-3.91,23.9-2.84-3.49a43.66,43.66,0,0,0-33.55-16.07l29-15.57L335,247.6l-36.54,42.09,6.32,7.71a47.49,47.49,0,0,0-14.83,9.43L258.62,279l-11,21,.43-20.17-49,15.63,1.24,26.33,8.34-2.18L209.92,333c-9.51-4.27-20.95-4.19-31.57.31a45.54,45.54,0,0,0-8.79,5c1.84-8.13,1.41-16.14-1.69-23.28a41.9,41.9,0,0,0-18-19.81,43,43,0,0,0-19-6.75c-16.93-3-37.28.08-57.3,8.59a140.6,140.6,0,0,0-20.42,10.66l-7.83,5,4.72,8,14.66,24.78s4.51,7.61,4.53,7.6l8-3.88,1.1-.54L114.73,430l3.51,7.82,8.16-2.61,19.73-6.31,8.64-2.76-2.28-8.78L142,377.14a83.54,83.54,0,0,0,8.42-7.08,36.69,36.69,0,0,0,1,14.34,33.77,33.77,0,0,0,18,21.71c9.57,4.6,21.25,4.61,32,0a46.49,46.49,0,0,0,14.31-9.66l1.49,16,34.54-5.07,0-31L324,412.14V377.58a58.62,58.62,0,0,0,8.84-1.41A73.36,73.36,0,0,0,353.6,368l-3,18.54,38.92,6.14,2.15-14,10.17,18.78,6.19-12,2.27,19.65,44.14,7.79-2.35-14.85a40.13,40.13,0,0,0,18.56-2.44,43.38,43.38,0,0,0,4.29-1.91l-1.78,15.82,29.37,4.11.24,12,30.61,9.63,39.88-120.17ZM359.29,322.9l2-2.17-2.48,15.15-6.37-5.73ZM333.43,261l10.68,14.52-30.55,15.14-2.12-3.19Zm-55.68,84.85-10-3.86,9.28-9A44.32,44.32,0,0,0,277.75,345.86ZM131,373l12.18,46.79-19.73,6.31L83,335.64c-2.19,1.16-6.26,3.1-10,4.95L58.3,315.81a131.81,131.81,0,0,1,19-9.92c19.11-8.12,37.3-10.53,51.89-8a34.82,34.82,0,0,1,15.38,5.29,32.89,32.89,0,0,1,14.48,15.64C166.13,335.12,154.35,358.61,131,373Zm83.68,11.54a39.59,39.59,0,0,1-16.46,13.28c-17.13,7.26-34.25,0-38.82-16.24C155,365.84,165.3,347.15,181.9,340c10.58-4.49,21.21-3.42,28.83,1.75a24.84,24.84,0,0,1,10,14c.19.66.34,1.32.48,2a29.59,29.59,0,0,1,.58,7A36.37,36.37,0,0,1,214.71,384.54ZM315,397.75l-71.62-35.82.12,37.53L224.92,402l-1.3-15.5c5.73-9.79,7.82-21.35,4.82-31.93a33.39,33.39,0,0,0-8.77-14.93L217,308.06l-8.33,2.17-.36-8,29.76-8.86,1.82,30.69,21.92-30.8,21.43,20.39L253.3,345.26l28.14,11.14a38.58,38.58,0,0,0,14,14.74,45.21,45.21,0,0,0,19.55,6.4Zm15.68-30.63a48.61,48.61,0,0,1-6.65,1.12c-16.43,1.6-30.21-6-35.45-18.2a26.9,26.9,0,0,1-1.51-4.57c-2.43-10.32-.37-19.52,4.73-26.74A34,34,0,0,1,296.9,313a41.45,41.45,0,0,1,17.87-9.09c15.67-3.77,29.47,1,37.89,11.38l-29.82,31.77c2,.36,5.25-.17,7.62-.75,7.11-1.71,11.1-5.47,14.58-9.59L357,347.45l3.62,3.25a60.75,60.75,0,0,1-4.89,4.54C348.83,360.91,341,364.62,330.63,367.12Zm112.71,34.2L419,397.6l-6.48-43-9.17,23.71-13.74-29.62h-.15L384,383l-22.88-4,3.21-19.15c.86-.81,1.71-1.64,2.55-2.5l7.41-7.64-7.18-6.46,7.63-45.6h23.12l5.77,31.56,6.49-36.58h16.52l6.86,44.57c-8.74,9.95-13,23.3-10.05,35.54a32.5,32.5,0,0,0,16.43,21.54c.84.45,1.71.85,2.59,1.22Zm24.41-13.27a31.14,31.14,0,0,1-17,1.66,25.08,25.08,0,0,1-9.84-4.21,24.38,24.38,0,0,1-9.47-14.41c-1.76-7.39-.15-15.32,3.83-22.21a38.49,38.49,0,0,1,7.56-9.32,37.4,37.4,0,0,1,11.6-7.16c10.1-3.8,20-2.47,27.07,2.57a23.45,23.45,0,0,1,6.39,6.87,24.71,24.71,0,0,1,2.88,7c2.13,8.88-.42,18.42-6,26.1a38.48,38.48,0,0,1-8.7,8.62A36.71,36.71,0,0,1,467.75,388.05Zm59.85,36.08-16.93-5.07-1.48-62.41-8.52,48.15-18.48-2.94L483.51,388c12.06-10.19,18.47-26.26,15-40.83a32,32,0,0,0-9.55-16.36l1.55-16.35-7-1.86.48-8.73,31.82,6.39L526.52,361l11-45.5,24.21,5.36Z" transform="translate(-40.27 -247.6)"/><path class="cls-3" d="M476.44,343.56a7.8,7.8,0,0,1,.26,2.27c-.2,4.73-4.66,8.39-10,8.17s-9.47-4.22-9.27-8.95c.18-4.44,4.12-7.94,9-8.17a18.4,18.4,0,0,0-2.9-.38c-8.88-.36-16.14,5.94-16.46,13.78-.34,8.35,6.39,15.21,15.13,15.57s16.14-5.93,16.48-14.28A13.49,13.49,0,0,0,476.44,343.56Z" transform="translate(-40.27 -247.6)"/><path class="cls-3" d="M206.87,353.12c0,4.73-4.31,8.57-9.63,8.57s-9.63-3.84-9.63-8.57c0-4.45,3.81-8.1,8.67-8.53a17.3,17.3,0,0,0-2.91-.26c-8.88,0-15.89,6.59-15.89,14.44,0,8.35,7,14.94,15.76,14.94s15.89-6.59,15.89-14.94a13.46,13.46,0,0,0-2.61-7.91A7.74,7.74,0,0,1,206.87,353.12Z" transform="translate(-40.27 -247.6)"/><path class="cls-3" d="M310.77,337.13a11,11,0,0,1,13.57-15.57Zm1.49-12.71a11,11,0,0,0-1.49,12.71l13.57-15.57A11,11,0,0,0,312.26,324.42Zm19.61-5.2a17,17,0,1,0-22.94,25.2,16.23,16.23,0,0,0,1.82,1.42l22.33-25.4C332.7,320,332.3,319.61,331.87,319.22Zm-21.1,17.91a11,11,0,0,1,13.57-15.57Z" transform="translate(-40.27 -247.6)"/><path class="cls-3" d="M143.58,334.36c-1.73-9.59-14.21-15-26.69-8.27l3.13,11L125,353.31l2.25,7.4C136.56,354.77,146,347.64,143.58,334.36ZM131.16,349l-4.26-14c0,.05-.59-2.07-1.27-4.44a11.94,11.94,0,0,1,7.26.77,6.26,6.26,0,0,1,3.62,4.32C137.51,341.15,135.61,345.07,131.16,349Z" transform="translate(-40.27 -247.6)"/><path d="M541.24,426.79h4.18v.61h-1.73v4.54H543V427.4h-1.74Z" transform="translate(-40.27 -247.6)"/><path d="M546,431.94v-5.15h1l1.48,4.36,1.48-4.36h1v5.15h-.66v-3c0-.1,0-.28,0-.52s0-.51,0-.79l-1.47,4.35h-.7l-1.48-4.35v.16c0,.13,0,.32,0,.58s0,.45,0,.57v3Z" transform="translate(-40.27 -247.6)"/><path d="M541.24,456.84h4.18v.62h-1.73V462H543v-4.54h-1.74Z" transform="translate(-40.27 -247.6)"/><path d="M546,462v-5.16h1l1.48,4.36,1.48-4.36h1V462h-.66v-3c0-.11,0-.28,0-.53s0-.5,0-.78L548.87,462h-.7l-1.48-4.35v.16c0,.13,0,.32,0,.58s0,.45,0,.57v3Z" transform="translate(-40.27 -247.6)"/><path class="cls-4" d="M161.73,471.12c-.6,3.13-1.13,6.47-1.37,9.09s.41,4.87.33,6.12a3.56,3.56,0,0,1-2.57,2.5c-1,.19-2.13.26-2.65-1.3a13.49,13.49,0,0,1-.15-4.36c.21-2.34.48-4.07.73-5.44-9.17,9.23-17.87,15-25.31,17-6.7,1.5-9.32-2.22-8.91-8.56,1.29-11.06,10.94-27.56,18.11-37a18.42,18.42,0,0,1,5.59-4.74c1-.36,2-.28,2.4,1a13.11,13.11,0,0,1,.49,2.73c0,1.12.15,2,.13,2.37-.07.61-.41,1.8-1.16,2.05a3.81,3.81,0,0,1-1.2.17,5.26,5.26,0,0,0-1.17,0,4.77,4.77,0,0,0-2.38,1.78c-4.86,6.16-12.41,17.9-13.75,30.38-.29,4.23,1.35,5.38,4.18,4.77,4.33-1.23,14.11-8,20.67-15.56a12,12,0,0,0,1.09-1.27c-.89.2-1.65.83-4,2s-3.43,2.26-5.14,2.67a2.15,2.15,0,0,1-2.56-2.3c.14-1.17,1.29-3.17,2.66-3.55a33.45,33.45,0,0,0,5.91-2.36c3.73-1.78,8.66-4.18,9.69-4.51.48-.07,1.24.47,1.18,1.55A39.64,39.64,0,0,1,161.73,471.12Z" transform="translate(-40.27 -247.6)"/><path class="cls-4" d="M174.1,456.94c.85-.82.72-2,2.5-2.45s2,.31,3.61,0c3.29-.49,10.08,2.63,9.48,13.25a20.38,20.38,0,0,1-15.14,17.58c-5.83,1-10.1-.68-9.53-9.58C165.66,469.7,169.46,461.78,174.1,456.94Zm8.15,13.47c.39-5.57-1.33-10.51-3.24-10.37-2,.62-5.67,7.34-6.37,13.9-.4,5.45,1,7,3.16,6.73C178.27,480.08,181.64,476.05,182.25,470.41Z" transform="translate(-40.27 -247.6)"/><path class="cls-4" d="M192.74,460a1.65,1.65,0,0,1-1.88-1.78c.15-1.46.81-3.06,2.39-3.41.89-.17,1.74-.67,2.49-.82.35-4.55-.27-7.86.06-11.41a5.21,5.21,0,0,1,3.68-4.65c2.54-.47,3.51,1.16,3.42,2.88s-.13,7.42-.42,11a12.14,12.14,0,0,1,2.46-1.13c1.43-.19,2.3.92,2.26,2.68a3.52,3.52,0,0,1-1.62,2.84,26,26,0,0,1-3,1.14c-.11,1.39-.43,9-.36,11.07s-.3,9.39-.38,10.54a4.14,4.14,0,0,1-3.27,2.94c-2.18.31-3.72-.17-3.88-1.39s.26-7.41.47-10,.45-9.61.57-11.2C194.78,459.55,193.76,459.85,192.74,460Z" transform="translate(-40.27 -247.6)"/><path class="cls-4" d="M210.87,457.16a1.73,1.73,0,0,1-1.87-1.89c.16-1.51.82-3.15,2.4-3.46.89-.15,1.74-.64,2.49-.77.36-4.72-.24-8.21.1-12,.23-2,1.43-4.28,3.69-4.79,2.54-.4,3.5,1.37,3.4,3.18s-.16,7.78-.46,11.5c.9-.31,1.36-.91,2.45-1.09,1.43-.15,2.3,1,2.25,2.84a3.53,3.53,0,0,1-1.63,2.88,22.81,22.81,0,0,1-3,1.09c-.11,1.43-.44,9.17-.38,11.28s-.29,9.41-.38,10.55a4,4,0,0,1-3.25,2.84c-2.19.25-3.72-.25-3.88-1.46s.25-7.37.47-10,.45-9.76.58-11.4C212.91,456.71,211.9,457,210.87,457.16Z" transform="translate(-40.27 -247.6)"/><path class="cls-4" d="M240.19,471.63a19.65,19.65,0,0,1-10.86,5.14c-3.27.33-5-.23-4.9-2.47.38-4,3.33-7.65,7.25-11.22,3.18-3.09,6.72-6.11,7.68-7a4.59,4.59,0,0,1,1.65-1c-.14-2.47-.8-5.1-2.91-5-1.91.3-4.61,2.37-5.83,3.76-.19.24-1.16,1.54-1.85,1.67a2.6,2.6,0,0,1-2.7-2.87,4.24,4.24,0,0,1,1.27-2.62c2.17-2,8.65-6,11.11-6.43,2.11-.24,5.78.29,7.48,11.3a54.8,54.8,0,0,1,.25,11.71,26.5,26.5,0,0,1-1.74,7.31c-.41.78-2.39,1.28-3.14,1.37-1.15.1-3.2.07-3.12-1.85C240,472.86,240.07,472.26,240.19,471.63Zm-6.9-4.36a6.31,6.31,0,0,0-1.62,3.62c-.06.95.5,1.37,1.53,1.29,3.06-.43,5-3,5.73-3.48a8.92,8.92,0,0,1,1.79-1c.18-2.11.41-4.83.46-7.6A45.72,45.72,0,0,0,233.29,467.27Z" transform="translate(-40.27 -247.6)"/><path class="cls-4" d="M273.45,464.31c-.19,2.48.21,3.69,2.51,3.61s4.5-1.62,5.7-2.28,3-3.28,4.95-3.47,2.89,1,2.84,2c-.72,4-10.41,7.67-15.44,8.15-6.91.2-7.87-3.08-7.63-6.56,1.58-13.07,13.73-24.55,16.24-25.08,1.76-.08,2.9.69,2.72,3.47-.2,2.06-.78,4.09-2.63,4.69C277.29,450.76,274,459.54,273.45,464.31Z" transform="translate(-40.27 -247.6)"/><path class="cls-4" d="M306.33,467.66a17.56,17.56,0,0,1-10.78,4.26c-3.25.07-4.92-.61-4.87-2.85.38-3.95,3.31-7.48,7.22-10.84,3.16-2.94,6.69-5.8,7.64-6.63a4.07,4.07,0,0,1,1.65-.9c-.13-2.61-.78-5.49-2.86-5.54-1.9.13-4.58,2.09-5.81,3.46-.19.23-1.16,1.53-1.84,1.6a3,3,0,0,1-2.66-3.33,4.21,4.21,0,0,1,1.28-2.69c2.16-1.92,8.61-5.62,11.05-5.82,2.1,0,5.71,1.08,7.36,12.75a58.38,58.38,0,0,1,.21,12.1,25.67,25.67,0,0,1-1.73,7.25c-.4.74-2.37,1.09-3.11,1.11-1.15,0-3.18-.19-3.1-2.1C306.1,468.88,306.21,468.28,306.33,467.66Zm-6.85-5a6.07,6.07,0,0,0-1.61,3.55c-.06.95.5,1.42,1.52,1.42,3.05-.19,5-2.6,5.7-3a8.34,8.34,0,0,1,1.78-.87c.18-2.13.41-4.91.46-7.77A41.73,41.73,0,0,0,299.48,462.68Z" transform="translate(-40.27 -247.6)"/><path class="cls-4" d="M318.34,448.58a2.18,2.18,0,0,1-1.83-2.4c.17-1.66.84-3.41,2.4-3.49.88,0,1.72-.45,2.46-.47.41-5.25-.13-9.46.27-13.82.26-2.4,1.46-4.82,3.7-4.92,2.49.08,3.41,2.39,3.29,4.47s-.27,9-.6,13.09c.89-.2,1.34-.79,2.43-.81,1.41.07,2.24,1.54,2.19,3.52a3.29,3.29,0,0,1-1.63,2.91,21,21,0,0,1-2.95.74c-.12,1.54-.5,9.8-.44,12s-.31,9.59-.39,10.71a3.31,3.31,0,0,1-3.22,2.39c-2.16,0-3.67-.73-3.83-1.94s.25-7.4.47-10.14.52-10.36.65-12.14C320.36,448.4,319.35,448.56,318.34,448.58Z" transform="translate(-40.27 -247.6)"/><path class="cls-4" d="M372.19,457.9c.4-6-.24-10.72-1.75-11-2.77.09-7.54,6.69-8.09,11.12a58.44,58.44,0,0,0-.23,8,29.37,29.37,0,0,1,.5,4.86,2.3,2.3,0,0,1-2.53,2c-3-.16-3.21-.56-3.61-1.4-.5-1.92-1-12.44-1.08-15.73.12-6.74-.53-21.88.24-31.94.74-7.8,2.36-10.38,5.86-10.22,2.07.23,3.07,2.52,2.89,5.28s-.87,6.5-1.51,13.86c-.4,5.07-.24,11.58-.5,16.55,1.09-3.38,5.76-8.95,11.69-8.75,4.06.53,6.17,7,5.3,18.51-.22,2.2-1.33,8.15-1.64,10.73-.19,1.72-1.16,3.18-4.33,3.05-2.06-.29-3-1.33-3-2.79C370.65,467.76,371.66,463.76,372.19,457.9Z" transform="translate(-40.27 -247.6)"/><path class="cls-4" d="M401.31,430.81c2-4,3.29-8.45,4.91-8.37,2.18.47,3.67,3.63,3.61,5.25a33.7,33.7,0,0,1-3.08,7.65c-1.53,2.37-4.56,4.64-5.64,4.61a3,3,0,0,1-2.74-3.16C398.61,434.93,400.56,432.18,401.31,430.81Z" transform="translate(-40.27 -247.6)"/><path class="cls-4" d="M406,464.67c-.23,3.45,1.16,5.37,2.08,5.55s2.22-.59,4.12-2.11c1.15-1,2.74-2.61,4.53-3.91,1.15-.78,1.77-1.16,2.64-1.07,1.6.22,2.18,1,2.1,2.33-.38,2.41-4.8,4.92-7.43,6.4-1.41.81-6.85,4-8.54,4-4.38-.69-5.93-6.24-5.64-10.67v-.06a3.12,3.12,0,0,1-1.25.08c-.6-.1-1.12-1.22-1.08-2,.19-2,.73-2.33,2.76-3.1,0-.51.08-1,.13-1.51.91-9,4.77-15.87,6.67-15.91,7.17,1.13,11.27,7.6,11.21,10.6-.17,2.1-.25,4.11-2.84,5.69-2.08,1.17-8.2,3.83-9.37,4.59C406.1,464,406.07,464.3,406,464.67Zm.52-6.83c1.28-.62,5-2.09,6.07-2.73.14-2.45-1.13-4.51-3.32-4.85C408.16,450.33,406.82,455.26,406.56,457.84Z" transform="translate(-40.27 -247.6)"/><path class="cls-4" d="M438,477.36c.09-.92,1.44-12.81,1.57-16,.08-2.92-.4-6.43-2.11-6.83-1.82-.09-6,4-6.59,8.82-.47,6.48,1,11.08.83,14.11-.22,1.32-2.73,1.65-3.67,1.55-1.73-.25-3.08-1-3.45-1.84-.46-2-.59-8.35-.6-10.57.09-7-.67-11.55-.46-14.58a4.38,4.38,0,0,1,3.85-3.65c2.4.38,3.7,1.16,3.75,6.7,2.11-3.45,5.64-6.6,9.05-6.17a6.65,6.65,0,0,1,5.16,5.56,11.91,11.91,0,0,1,10.34-3.58c3.27.84,4.63,6.28,4.63,10.23,0,2.73-.19,7.41-.36,10.28s0,6-.14,7.8-1.22,3.2-4.36,2.74-3.41-2.08-3.29-3.77c.33-3.78,1.18-10.86,1.49-14.28.25-3,.52-7.17-1.57-7.72-2.14-.33-3.31.54-6,3,0,.31-.17,8-.32,10.65-.17,2.86-.19,6-.33,7.76s-1,3.13-4.11,2.79C438.51,479.84,437.84,479,438,477.36Z" transform="translate(-40.27 -247.6)"/><path class="cls-4" d="M488.36,484.62c-3,2.38-7.41,2.71-10.6,2.11s-4.82-1.86-4.76-4.22c.4-4.12,3.27-7,7.09-9.3,3.1-2.09,6.53-3.87,7.46-4.39a3.19,3.19,0,0,1,1.61-.43c-.16-2.34-.84-4.92-2.88-5.48a8.44,8.44,0,0,0-5.64,1.62c-.23.19-1.12,1.08-1.79,1a3.76,3.76,0,0,1-2.64-3.58,2.57,2.57,0,0,1,1.22-2c2.09-1.11,8.33-2.55,10.73-2.09,2,.5,5.66,1.84,7.39,12.48a51.57,51.57,0,0,1,.26,11.48,25.77,25.77,0,0,1-1.74,7.29c-.4.74-2.32.66-3.05.51-1.13-.27-3.11-1-3-3.06Zm-6.7-6.7a4.83,4.83,0,0,0-1.59,3.26,1.68,1.68,0,0,0,1.48,1.83c3,.5,4.92-1.57,5.6-1.87a5.72,5.72,0,0,1,1.74-.48c.18-2.12.41-4.79.44-7.45C487.37,474.06,483.71,475.8,481.66,477.92Z" transform="translate(-40.27 -247.6)"/><path class="cls-4" d="M504.54,444.31c1.51.52,3.42,1.94,3.43,3.63s-.74,5-1.13,9.3c-.23,3.6.68,15.82.61,19.7-.05,5.15,1.18,12.1,1.09,14.08s-1.59,2.55-3.65,2.08c-1.91-.5-4.1-1.54-4.18-3.33,0-2.11-.42-8.41-.32-14.54s-1.32-17.11-.71-25.46C500.21,444.53,501.9,443.51,504.54,444.31Z" transform="translate(-40.27 -247.6)"/><path class="cls-4" d="M517.05,448.51c1.5.54,3.42,1.94,3.44,3.52s-.71,4.66-1.08,8.78c-.22,3.44.71,15.38.64,19.25,0,5.12,1.18,12.2,1.08,14.23s-1.59,2.59-3.65,2.08-4.09-1.65-4.16-3.48c0-2.16-.41-8.57-.32-14.67s-1.35-16.84-.76-24.73C512.73,448.54,514.42,447.67,517.05,448.51Z" transform="translate(-40.27 -247.6)"/><path class="cls-4" d="M338,462.92c-.19,2.49.21,3.74,2.49,3.85s4.47-1.29,5.66-1.86,3-3.07,4.92-3.12c1.88.11,2.87,1.22,2.82,2.28-.72,4-10.34,6.92-15.34,7-6.85-.34-7.82-3.71-7.58-7.22,1.59-13.15,13.66-23.92,16.17-24.23,1.74.09,2.87,1,2.69,3.81-.2,2.09-.77,4.09-2.62,4.54C341.8,449.42,338.5,458.12,338,462.92Z" transform="translate(-40.27 -247.6)"/><path class="cls-5" d="M134.55,484.05c-1.4,1-2.71,1.92-3.86,2.62a44.3,44.3,0,0,1,2.5-8.4c0,.17-.06.35-.08.52l0,.4A7.87,7.87,0,0,0,134.55,484.05Zm26.21-18.92a6.39,6.39,0,0,0-5.25-1.58,4.89,4.89,0,0,0-.84.2c-1,.34-2.82,1.19-8,3.76l-2.14,1.05a33.44,33.44,0,0,1-4.65,2l-.19.05a8.56,8.56,0,0,0-4.38,3.09A73,73,0,0,1,142,462.85a10,10,0,0,0,2-.37l.29-.09c3.19-1.09,4.59-4.19,4.83-6.72,0-.07,0-.14,0-.21a13.07,13.07,0,0,0-.06-1.75c0-.35-.06-.74-.08-1.15,0-.16,0-.34-.05-.5l-.06-.43a14.62,14.62,0,0,0-.71-3.3,7.05,7.05,0,0,0-3.61-4.13,7.54,7.54,0,0,0-5.92-.11l-.15.06c-2.6,1.08-5.9,4.11-7.68,6.42-5.81,7.78-17.08,25.89-18.49,39.2a2.46,2.46,0,0,0,0,.28c-.37,6.67,2.06,10.18,4.17,11.94s5.59,3.39,11.4,2l.26-.07c5.65-1.61,11.62-4.94,17.82-9.93a7.31,7.31,0,0,0,8.57,3.92l.21,0a9,9,0,0,0,6.63-7.17,2.43,2.43,0,0,0,0-.38,15.6,15.6,0,0,0-.19-2.89,15.39,15.39,0,0,1-.19-3c.16-2.08.58-5.06,1.17-8.28l.29-1.59a28.61,28.61,0,0,0,.52-3.62,1.34,1.34,0,0,1,0-.2A7.05,7.05,0,0,0,160.76,465.13Zm-12.6-17,.08.24,0,.09Z" transform="translate(-40.27 -247.6)"/><path class="cls-5" d="M184.22,456.63a13,13,0,0,0-10.29-3.39,9.94,9.94,0,0,0-3.79.06l-.23.05a7.93,7.93,0,0,0-5.34,4.23c-5.2,5.67-9.29,14.48-10,21.56a1.79,1.79,0,0,0,0,.23c-.31,5.68,1.06,9.9,4,12.55s6.84,3.36,11.85,2.48l.3-.06a25.49,25.49,0,0,0,18.89-22.17l0-.33C190.08,463.66,186.93,459.05,184.22,456.63Z" transform="translate(-40.27 -247.6)"/><path class="cls-5" d="M204.08,451a7.09,7.09,0,0,0-1.8-1.16c0-.42,0-.86,0-1.26,0-1.3,0-2.64.07-3.17a8,8,0,0,0-10-8.55l-.32.07a10.51,10.51,0,0,0-7.67,9.4,42.38,42.38,0,0,0,0,5.86c0,.68.06,1.34.08,2a9,9,0,0,0-4.77,7.53c0,.11,0,.21,0,.31a7.34,7.34,0,0,0,2.38,5.67,7.19,7.19,0,0,0,2.2,1.33c-.07,1.87-.14,3.76-.21,4.79-.19,2.67-.4,8.89-.37,10.35,0,.22,0,.44.05.66a6.91,6.91,0,0,0,2.72,4.57c1.3,1,3.63,2,7.38,1.44l.25-.05c3.89-.76,7.15-4.06,7.58-7.67l0-.32c.08-1.34.25-8.66.28-10.59,0-.1,0-.21,0-.31-.05-1.09,0-4.27.1-6.84l.1-.05a9,9,0,0,0,4.51-7.39v-.21A8.18,8.18,0,0,0,204.08,451Z" transform="translate(-40.27 -247.6)"/><path class="cls-5" d="M221.84,448.1a7.81,7.81,0,0,0-1.8-1.19c0-.53,0-1.06,0-1.56,0-1.46.05-2.83.09-3.41a8.68,8.68,0,0,0-2.75-7,8.33,8.33,0,0,0-7-1.85l-.34.07c-4.26,1-7.33,4.75-7.8,9.56a46.31,46.31,0,0,0,0,6.12c0,.72,0,1.46.07,2.21a9.05,9.05,0,0,0-4.79,7.61c0,.1,0,.19,0,.29a7.5,7.5,0,0,0,2.35,5.71A7.1,7.1,0,0,0,202,466c-.07,2-.15,4-.22,5.07-.2,2.71-.4,8.93-.37,10.34a4.6,4.6,0,0,0,.05.64c.51,3.6,3.78,6.88,10,6.1l.25,0c3.95-.68,7.26-3.95,7.7-7.59l0-.32c.08-1.31.24-8.64.27-10.59v-.32c-.05-1.1,0-4.36.11-7l0,0a9,9,0,0,0,4.56-7.46v-.2A8.41,8.41,0,0,0,221.84,448.1Z" transform="translate(-40.27 -247.6)"/><path class="cls-5" d="M246.21,457.43c-2.29-13.87-8.64-16.08-13.55-15.47l-.33.05c-4.18.78-11.49,5.88-13.56,7.79l-.24.24a9.57,9.57,0,0,0-2.72,5.88c0,.1,0,.2,0,.3a8,8,0,0,0,4.38,7.62c-3.25,3.21-6.9,7.76-7.38,13.32,0,.14,0,.27,0,.4a7.78,7.78,0,0,0,2.46,6c2.59,2.34,6.1,2.25,8.51,2l.14,0a26.29,26.29,0,0,0,7.71-2.41,9.43,9.43,0,0,0,5.4.9l.15,0c1.28-.16,5.57-.95,7.29-4.35,0-.09.09-.18.13-.27a31.41,31.41,0,0,0,2.08-9A58.1,58.1,0,0,0,246.21,457.43ZM228.69,471h0v0Zm.05.79c0,.05,0,.09,0,.14h0C228.75,471.84,228.75,471.8,228.74,471.75Z" transform="translate(-40.27 -247.6)"/><path class="cls-5" d="M285.3,462a8.48,8.48,0,0,0-6.37-2.34,3.11,3.11,0,0,0-.43,0,9.74,9.74,0,0,0-5.07,2.32c1.06-2.32,2.39-4.21,3.46-4.59,2.58-.87,5.76-3.19,6.28-9.4a.86.86,0,0,0,0-.16,8.74,8.74,0,0,0-2.3-7,7.83,7.83,0,0,0-6.22-2.18,5.43,5.43,0,0,0-.89.12c-5.1,1.14-18.3,14.68-19.94,29.53a2.46,2.46,0,0,0,0,.28c-.22,3.73.74,6.72,2.86,8.88,2.36,2.41,5.77,3.49,10.41,3.3l.37,0c4.81-.52,18.48-4.48,19.9-12.69a6.87,6.87,0,0,0,.08-.78A7.13,7.13,0,0,0,285.3,462Z" transform="translate(-40.27 -247.6)"/><path class="cls-5" d="M311,453.11c-1.73-11.44-6.09-17.19-12.92-17l-.38,0c-4.32.4-11.83,5.3-13.95,7.21l-.26.25a9.62,9.62,0,0,0-2.76,6,2.45,2.45,0,0,0,0,.27,8.68,8.68,0,0,0,2.4,6.46,8.79,8.79,0,0,0,2.29,1.67c-3.34,3.1-7.23,7.61-7.73,13.38,0,.14,0,.27,0,.4a7.82,7.82,0,0,0,2.3,5.85c2.43,2.38,5.84,2.56,8.19,2.49h.15a25.11,25.11,0,0,0,7.7-1.77,9.56,9.56,0,0,0,5.32,1.32h.16c1.33-.06,5.83-.52,7.68-4.07.05-.09.09-.18.13-.27a30.26,30.26,0,0,0,2.11-9A62.27,62.27,0,0,0,311,453.11ZM298.9,461a3.16,3.16,0,0,0-.32,0l0,0Zm-5.43,5.19v0Zm0,1v0Z" transform="translate(-40.27 -247.6)"/><path class="cls-5" d="M325.24,438.51c0-1,.05-2,.07-2.94,0-1.72.08-3.33.13-4.05a10.21,10.21,0,0,0-2.52-7.52,8.57,8.57,0,0,0-6.14-2.7h-.41c-4.71.26-8.23,4.21-8.77,9.84a66.79,66.79,0,0,0-.09,7c0,.89.05,1.79.05,2.71-2.31,1.08-4.42,3.48-4.81,7.77,0,.09,0,.18,0,.27a8,8,0,0,0,2.14,5.79,7.09,7.09,0,0,0,2.37,1.68c-.09,2.37-.19,5-.28,6.31-.21,2.84-.41,9-.38,10.46,0,.21,0,.42.05.63.43,3,3.09,6.58,9.2,6.62h.27c4.22-.18,7.9-3.34,8.38-7.21l0-.34c.08-1.32.25-8.89.29-10.75,0-.1,0-.2,0-.3,0-1.15,0-4.61.14-7.43a8.73,8.73,0,0,0,4.61-7.46,1.48,1.48,0,0,0,0-.21C329.62,443,327.92,439.92,325.24,438.51Z" transform="translate(-40.27 -247.6)"/><path class="cls-5" d="M342.52,458.6h-.45a10,10,0,0,0-5.92,2.53c1.07-2.69,2.58-4.9,3.66-5.2l-.14,0c2.25-.57,6.1-2.53,6.67-9.37,0,0,0-.1,0-.15a9.19,9.19,0,0,0-2.13-6.95,8.05,8.05,0,0,0-5.83-2.57,5.87,5.87,0,0,0-.94,0c-5.9.77-18.77,14.28-20.37,28.77a2.64,2.64,0,0,0,0,.28,11.86,11.86,0,0,0,2.71,8.89c2.22,2.44,5.61,3.77,10.07,4h.38c4.9-.14,18.79-3.15,20.25-11.6a4.9,4.9,0,0,0,.07-.77C350.68,462.21,347.23,458.82,342.52,458.6Z" transform="translate(-40.27 -247.6)"/><path class="cls-5" d="M365.25,437.54l-.52,0a15,15,0,0,0-5.8,1.05c0-.93.06-1.84.12-2.69.34-4.41.68-7.41,1-9.83.16-1.4.29-2.6.38-3.69,0,0,0-.1,0-.15.32-5.92-2.9-10.42-7.82-10.93a2.43,2.43,0,0,0-.38,0c-10-.36-11,10.89-11.33,15.12-.46,7-.25,16-.08,23.26.09,3.43.16,6.4.14,8.47v.2c0,.13.56,13.54,1.41,16.69a4.87,4.87,0,0,0,.39,1c1.89,3.8,5.12,4.25,8.26,4.38h.4a8,8,0,0,0,6.31-3.14,9,9,0,0,0,5.86,2.91,4.9,4.9,0,0,0,.54,0c5.51.17,9.38-3,9.86-8,.11-1,.41-2.91.69-4.76.36-2.31.7-4.5.82-5.83C376.69,442.86,370.58,438.19,365.25,437.54Z" transform="translate(-40.27 -247.6)"/><path class="cls-5" d="M397,419.58a6,6,0,0,0-.84-.1c-5-.22-7,4.48-8.56,8.25-.42,1-.86,2-1.33,3-.12.21-.31.54-.51.87-1.41,2.37-2.6,4.53-2.87,6.89,0,.14,0,.28,0,.42a8.43,8.43,0,0,0,7.51,8.75,4.46,4.46,0,0,0,.63,0c4.62.09,9.05-5.26,10.24-7.13.08-.13.16-.26.23-.39,1.49-2.86,3.26-7.27,3.53-9.43,0-.18,0-.36,0-.54C405.11,426.55,402.31,420.65,397,419.58Z" transform="translate(-40.27 -247.6)"/><path class="cls-5" d="M412.78,460.09a15.55,15.55,0,0,0,.83-4.35v-.22c0-.12,0-.25,0-.37,0-5.61-6-14.32-15.82-15.77a5.32,5.32,0,0,0-1-.06c-6.76.23-10.53,11.4-11.54,19.27a8,8,0,0,0-2.94,6c0,.08,0,.15,0,.23a8,8,0,0,0,2.48,6c.82,5.71,4,11.08,10.16,12a5.12,5.12,0,0,0,.78.06c2.3,0,4.9-1.09,10.73-4.53l.4-.24c3.63-2.1,9.15-5.29,9.89-10.31a4.4,4.4,0,0,0,0-.51A7.29,7.29,0,0,0,412.78,460.09Zm-23.92,1.45-.29.07Z" transform="translate(-40.27 -247.6)"/><path class="cls-5" d="M454.77,462.32c-.06-6.13-2.41-13.76-8.84-15.35a3.73,3.73,0,0,0-.46-.09,17.17,17.17,0,0,0-9.23,1.24,11.4,11.4,0,0,0-5.83-3l-.37-.06a11.65,11.65,0,0,0-7.37,1.74,9.64,9.64,0,0,0-5-2.1l-.4-.05c-4-.3-9,3.26-9.63,8.46l0,.33a46.14,46.14,0,0,0,.21,5.92c.18,2.45.38,5.21.37,8.68,0,1.53.18,8.82.85,11.64a5.85,5.85,0,0,0,.31.92c1.17,2.7,4,4.54,7.71,5l.25,0A10.2,10.2,0,0,0,424,484a10.08,10.08,0,0,0,6.06,2.78l.28,0a9.35,9.35,0,0,0,7.09-1.84l.18-.16a9.59,9.59,0,0,0,6.12,3.37l.23,0a9.4,9.4,0,0,0,7.39-1.69,8.42,8.42,0,0,0,3.1-6c0-.06,0-.12,0-.17.07-1,.05-2.23,0-3.62s0-2.8,0-4.12C454.66,469.67,454.76,465,454.77,462.32Z" transform="translate(-40.27 -247.6)"/><path class="cls-5" d="M489.36,470c-1.7-9.79-5.37-15.06-11.53-16.5a1.5,1.5,0,0,0-.29-.06c-3.91-.7-11.26,1.19-14.12,2.75l-.39.24a8,8,0,0,0-3.62,6.1c0,.11,0,.21,0,.32a9.13,9.13,0,0,0,4.35,8c-2.8,2.07-6.75,5.9-7.27,11.94,0,.13,0,.26,0,.38,0,2.88,1.08,7.94,9.11,9.59l.15,0a20.46,20.46,0,0,0,7.73-.1,10.05,10.05,0,0,0,5,2.7l.17,0c3,.58,7.11,0,8.91-3.36a3,3,0,0,0,.16-.31,31.28,31.28,0,0,0,2.1-9A55.68,55.68,0,0,0,489.36,470Zm-13.07,5.89a5.77,5.77,0,0,1,1.55-.13h0A7.85,7.85,0,0,0,476.29,475.84ZM472,481.08v0Z" transform="translate(-40.27 -247.6)"/><path class="cls-5" d="M501.93,486a80.44,80.44,0,0,1-.75-8.64c0-1.82-.17-5-.39-8.76s-.49-8.48-.41-10.18c.17-2.17.42-4.09.63-5.63s.33-2.59.38-3.58c0-.12,0-.23,0-.35-.07-4.35-3.64-7.49-7.15-8.67l-.22-.07a8.48,8.48,0,0,0-7.45.93c-3.31,2.26-4,6.38-4.29,9.28,0,.05,0,.09,0,.14a134.67,134.67,0,0,0,.5,17.14c.22,3.12.44,6.06.44,8.16,0,4,.18,8,.33,10.9.07,1.47.14,2.73.14,3.33,0,.1,0,.2,0,.3.1,1.89,1.11,6.48,8.29,8.28l.17,0a8.55,8.55,0,0,0,7.07-1.2,7.89,7.89,0,0,0,3.14-5.7c0-.12,0-.24,0-.36A38.36,38.36,0,0,0,501.93,486Z" transform="translate(-40.27 -247.6)"/><path class="cls-5" d="M514.3,488.93a78.88,78.88,0,0,1-.73-8.64c0-1.85-.2-5.24-.42-8.84s-.49-8.06-.42-9.65c.17-2.05.41-3.84.6-5.28s.33-2.47.37-3.44c0-.12,0-.23,0-.35-.08-4.19-3.62-7.29-7.08-8.52l-.22-.07a8.55,8.55,0,0,0-7.57.82c-3.26,2.2-4,6.13-4.22,8.9a.71.71,0,0,1,0,.14,125.49,125.49,0,0,0,.53,16.38c.23,3.12.46,6.08.46,8.21,0,3.93.18,8,.32,10.93.08,1.5.14,2.8.14,3.43a2.44,2.44,0,0,0,0,.27c.09,1.88,1.07,6.48,8.17,8.41l.16.05a8.48,8.48,0,0,0,7.12-1.09,7.9,7.9,0,0,0,3.21-5.78c0-.11,0-.23,0-.35A38.59,38.59,0,0,0,514.3,488.93Z" transform="translate(-40.27 -247.6)"/><path class="cls-4" d="M156.82,475.15c-.56,3.07-1,6.36-1.25,8.93s.45,4.76.38,6a3.46,3.46,0,0,1-2.49,2.47c-1,.2-2.08.28-2.61-1.24a13.25,13.25,0,0,1-.19-4.28c.18-2.29.43-4,.66-5.33-8.89,9.14-17.36,14.88-24.64,17-6.55,1.53-9.15-2.09-8.8-8.3,1.15-10.86,10.43-27.12,17.37-36.41a17.88,17.88,0,0,1,5.42-4.69c1-.37,2-.3,2.37.91a13.2,13.2,0,0,1,.51,2.67c0,1.09.16,1.95.14,2.32-.05.6-.37,1.77-1.11,2a3.94,3.94,0,0,1-1.17.18,5,5,0,0,0-1.15,0,4.82,4.82,0,0,0-2.32,1.77c-4.69,6.08-12,17.67-13.16,29.91-.24,4.15,1.38,5.26,4.14,4.63,4.24-1.25,13.74-8,20.1-15.45a12.84,12.84,0,0,0,1.06-1.26c-.88.21-1.61.83-3.94,2s-3.34,2.25-5,2.67a2.11,2.11,0,0,1-2.53-2.22c.13-1.15,1.24-3.13,2.58-3.51a33.47,33.47,0,0,0,5.76-2.38c3.64-1.78,8.44-4.18,9.45-4.51.48-.08,1.22.45,1.17,1.5A36.53,36.53,0,0,1,156.82,475.15Z" transform="translate(-40.27 -247.6)"/><path class="cls-4" d="M168.8,461.13c.83-.81.68-2,2.43-2.42s2,.28,3.53,0c3.22-.51,9.91,2.48,9.42,12.89A20,20,0,0,1,169.53,489c-5.71,1-9.91-.56-9.44-9.29C160.66,473.73,164.31,465.93,168.8,461.13Zm8.12,13.12c.33-5.46-1.4-10.29-3.28-10.12-1.92.62-5.48,7.25-6.1,13.68-.33,5.34,1.09,6.88,3.17,6.56C173.11,483.77,176.38,479.79,176.92,474.25Z" transform="translate(-40.27 -247.6)"/><path class="cls-4" d="M187.09,464a1.63,1.63,0,0,1-1.86-1.73c.14-1.44.77-3,2.31-3.36.87-.18,1.7-.68,2.44-.83.29-4.47-.35-7.71-.06-11.19a5.09,5.09,0,0,1,3.55-4.59c2.49-.49,3.46,1.1,3.39,2.78s-.06,7.28-.3,10.81c.88-.34,1.32-.92,2.39-1.13,1.41-.2,2.27.88,2.25,2.6a3.42,3.42,0,0,1-1.56,2.8,25.22,25.22,0,0,1-2.91,1.15c-.09,1.36-.33,8.8-.24,10.85s-.2,9.21-.27,10.33a4,4,0,0,1-3.17,2.92c-2.14.32-3.64-.13-3.81-1.32s.17-7.27.35-9.85.34-9.42.44-11C189.09,463.48,188.1,463.79,187.09,464Z" transform="translate(-40.27 -247.6)"/><path class="cls-4" d="M204.84,461a1.7,1.7,0,0,1-1.86-1.84c.14-1.47.78-3.09,2.31-3.4.88-.16,1.7-.66,2.44-.79.31-4.62-.32-8.05,0-11.71.2-2,1.35-4.21,3.57-4.73,2.48-.41,3.44,1.31,3.36,3.08s-.08,7.63-.34,11.28c.88-.32,1.33-.91,2.4-1.1,1.4-.16,2.26,1,2.23,2.76a3.47,3.47,0,0,1-1.56,2.84,23.73,23.73,0,0,1-2.91,1.1c-.09,1.41-.34,9-.26,11.06s-.19,9.22-.26,10.34a3.93,3.93,0,0,1-3.16,2.81c-2.14.27-3.65-.2-3.81-1.39s.17-7.22.35-9.82.35-9.57.46-11.17C206.83,460.52,205.84,460.81,204.84,461Z" transform="translate(-40.27 -247.6)"/><path class="cls-4" d="M233.71,474.86A19.13,19.13,0,0,1,223.12,480c-3.2.36-4.86-.17-4.83-2.37.34-3.91,3.19-7.53,7-11.07,3.08-3.06,6.52-6.06,7.45-6.92a4.57,4.57,0,0,1,1.61-1c-.17-2.42-.84-5-2.91-4.83-1.87.31-4.48,2.37-5.67,3.74-.18.23-1.12,1.52-1.79,1.66a2.57,2.57,0,0,1-2.68-2.79,4.11,4.11,0,0,1,1.22-2.58c2.11-2,8.41-6,10.82-6.42,2.07-.25,5.66.23,7.45,11a53.08,53.08,0,0,1,.35,11.47,25.62,25.62,0,0,1-1.63,7.19c-.38.76-2.32,1.28-3,1.37-1.14.11-3.14.1-3.08-1.78C233.49,476.07,233.6,475.48,233.71,474.86Zm-6.81-4.2a6.27,6.27,0,0,0-1.55,3.57c0,.93.51,1.34,1.51,1.24,3-.45,4.92-3,5.59-3.46a9.94,9.94,0,0,1,1.74-1c.16-2.06.36-4.73.37-7.45A46.07,46.07,0,0,0,226.9,470.66Z" transform="translate(-40.27 -247.6)"/><path class="cls-4" d="M266.23,467.35c-.16,2.43.24,3.61,2.5,3.52s4.39-1.64,5.56-2.29,3-3.25,4.82-3.46,2.83.93,2.8,2c-.67,3.89-10.12,7.61-15.05,8.14-6.76.27-7.74-2.94-7.54-6.35,1.41-12.82,13.2-24.19,15.66-24.74,1.72-.1,2.85.64,2.7,3.37-.17,2-.72,4-2.53,4.62C269.86,454,266.69,462.68,266.23,467.35Z" transform="translate(-40.27 -247.6)"/><path class="cls-4" d="M298.49,470.31A17.23,17.23,0,0,1,288,474.59c-3.18.1-4.83-.55-4.8-2.74.34-3.88,3.17-7.36,7-10.7,3.07-2.91,6.5-5.75,7.42-6.57a4.05,4.05,0,0,1,1.61-.91c-.16-2.55-.82-5.36-2.87-5.39-1.85.15-4.46,2.09-5.65,3.45-.18.22-1.12,1.5-1.78,1.58a2.93,2.93,0,0,1-2.65-3.23,4.18,4.18,0,0,1,1.23-2.66c2.1-1.89,8.38-5.58,10.77-5.81,2.06-.05,5.61,1,7.34,12.42a57.85,57.85,0,0,1,.33,11.86,25.21,25.21,0,0,1-1.63,7.12c-.38.73-2.3,1.09-3,1.12-1.13,0-3.12-.15-3.06-2C298.27,471.5,298.38,470.92,298.49,470.31Zm-6.76-4.82a5.94,5.94,0,0,0-1.55,3.5c0,.94.51,1.39,1.5,1.37,3-.21,4.89-2.59,5.56-3a8,8,0,0,1,1.73-.87c.16-2.09.36-4.81.38-7.62C297.4,460.23,293.75,462.92,291.73,465.49Z" transform="translate(-40.27 -247.6)"/><path class="cls-4" d="M310.06,451.49a2.12,2.12,0,0,1-1.81-2.33c.14-1.63.78-3.35,2.31-3.45.86,0,1.68-.45,2.41-.48.35-5.16-.22-9.27.12-13.55.23-2.36,1.39-4.74,3.58-4.86,2.44.05,3.37,2.3,3.26,4.35s-.17,8.79-.45,12.83c.87-.21,1.31-.79,2.37-.81,1.38.05,2.22,1.48,2.18,3.42a3.2,3.2,0,0,1-1.56,2.87,19.34,19.34,0,0,1-2.88.75c-.1,1.52-.39,9.62-.31,11.79s-.21,9.41-.28,10.51a3.24,3.24,0,0,1-3.13,2.37c-2.11,0-3.61-.68-3.77-1.86s.17-7.25.36-9.94.4-10.16.51-11.9C312,451.3,311.05,451.46,310.06,451.49Z" transform="translate(-40.27 -247.6)"/><path class="cls-4" d="M362.92,460.08c.33-5.84-.33-10.51-1.82-10.77-2.71.12-7.32,6.63-7.82,11a56.09,56.09,0,0,0-.14,7.85,29.54,29.54,0,0,1,.54,4.76,2.25,2.25,0,0,1-2.46,2c-3-.13-3.15-.52-3.56-1.33-.5-1.88-1.12-12.18-1.21-15.41.05-6.6-.74-21.43-.08-31.3.64-7.65,2.2-10.2,5.64-10.08,2,.21,3,2.44,2.88,5.15s-.79,6.38-1.35,13.6c-.34,5-.11,11.35-.32,16.22,1-3.32,5.56-8.83,11.37-8.69,4,.48,6.12,6.76,5.38,18.09-.19,2.15-1.22,8-1.5,10.53-.16,1.69-1.1,3.12-4.2,3-2-.26-3-1.27-2.95-2.7C361.52,469.76,362.46,465.83,362.92,460.08Z" transform="translate(-40.27 -247.6)"/><path class="cls-4" d="M391.19,433.24c1.91-3.92,3.14-8.32,4.73-8.25,2.13.43,3.63,3.52,3.59,5.1a33.53,33.53,0,0,1-2.94,7.54c-1.48,2.33-4.42,4.58-5.48,4.56a2.9,2.9,0,0,1-2.72-3.06C388.58,437.31,390.47,434.59,391.19,433.24Z" transform="translate(-40.27 -247.6)"/><path class="cls-4" d="M396.17,466.37c-.19,3.39,1.19,5.26,2.09,5.42s2.17-.6,4-2.11c1.12-.95,2.67-2.58,4.4-3.87,1.12-.78,1.73-1.16,2.59-1.08,1.56.2,2.14,1,2.07,2.26-.35,2.37-4.65,4.87-7.21,6.35-1.38.8-6.68,4-8.33,4-4.3-.63-5.88-6.06-5.63-10.39v-.07a2.81,2.81,0,0,1-1.23.09c-.58-.09-1.1-1.18-1.07-1.93.17-1.92.7-2.3,2.67-3.07,0-.5.07-1,.11-1.48.8-8.82,4.52-15.6,6.38-15.66,7,1,11.12,7.34,11.1,10.27-.15,2.06-.21,4-2.73,5.61-2,1.17-8,3.83-9.14,4.59C396.22,465.67,396.2,466,396.17,466.37Zm.44-6.7c1.24-.62,4.86-2.09,5.92-2.73.11-2.4-1.15-4.41-3.31-4.72C398.1,452.3,396.84,457.14,396.61,459.67Z" transform="translate(-40.27 -247.6)"/><path class="cls-4" d="M427.56,478.49c.08-.91,1.29-12.57,1.38-15.73.05-2.86-.46-6.29-2.13-6.67-1.79-.07-5.86,4-6.37,8.71-.4,6.36,1.1,10.85.95,13.82-.2,1.3-2.66,1.64-3.58,1.56-1.7-.23-3-.92-3.4-1.77-.47-2-.66-8.18-.7-10.36,0-6.86-.76-11.3-.59-14.28a4.31,4.31,0,0,1,3.74-3.62c2.35.35,3.63,1.1,3.74,6.53,2-3.4,5.46-6.52,8.81-6.14a6.54,6.54,0,0,1,5.11,5.41,11.61,11.61,0,0,1,10.09-3.62c3.22.79,4.6,6.1,4.64,10,0,2.68-.11,7.27-.24,10.09s.05,5.9-.07,7.64-1.16,3.15-4.24,2.73-3.37-2-3.26-3.67c.29-3.7,1.05-10.65,1.31-14,.22-2.93.44-7-1.61-7.55-2.1-.3-3.24.56-5.81,3,0,.3-.09,7.82-.21,10.44-.14,2.81-.13,5.89-.25,7.61s-1,3.08-4,2.78C428.13,480.91,427.47,480.11,427.56,478.49Z" transform="translate(-40.27 -247.6)"/><path class="cls-4" d="M477,485.09c-2.95,2.36-7.22,2.73-10.36,2.18s-4.74-1.78-4.7-4.09c.35-4,3.13-6.85,6.85-9.18,3-2.08,6.36-3.86,7.26-4.38a3.18,3.18,0,0,1,1.57-.44c-.18-2.29-.87-4.82-2.87-5.34a8.25,8.25,0,0,0-5.51,1.64c-.22.19-1.09,1.08-1.74,1A3.68,3.68,0,0,1,464.9,463a2.49,2.49,0,0,1,1.18-2c2-1.11,8.13-2.58,10.49-2.16,2,.47,5.56,1.74,7.37,12.16a51.3,51.3,0,0,1,.37,11.24,25.63,25.63,0,0,1-1.63,7.17c-.39.72-2.27.66-3,.53-1.1-.25-3.05-1-3-3C476.82,486.32,476.92,485.72,477,485.09Zm-6.63-6.49a4.66,4.66,0,0,0-1.52,3.2,1.63,1.63,0,0,0,1.47,1.78c2.94.47,4.8-1.58,5.46-1.88,1-.34,1.86-.62,1.71-.49.15-2.08.35-4.7.36-7.31C476,474.76,472.39,476.49,470.4,478.6Z" transform="translate(-40.27 -247.6)"/><path class="cls-4" d="M492.49,445.43c1.48.49,3.37,1.86,3.39,3.52s-.67,4.89-1,9.13c-.19,3.52.83,15.49.8,19.3,0,5,1.28,11.84,1.2,13.78s-1.53,2.51-3.55,2.07-4-1.46-4.13-3.21c0-2.07-.5-8.24-.46-14.25s-1.47-16.75-1-24.94C488.24,445.69,489.89,444.67,492.49,445.43Z" transform="translate(-40.27 -247.6)"/><path class="cls-4" d="M504.79,449.41c1.47.53,3.37,1.87,3.4,3.43s-.65,4.56-1,8.61c-.17,3.37.86,15.07.83,18.85,0,5,1.27,11.95,1.2,13.94s-1.54,2.56-3.56,2.07-4-1.57-4.11-3.37c0-2.11-.49-8.39-.46-14.37s-1.49-16.48-1-24.22C500.55,449.49,502.2,448.62,504.79,449.41Z" transform="translate(-40.27 -247.6)"/><path class="cls-4" d="M329.45,465.34c-.16,2.44.24,3.67,2.48,3.75s4.37-1.31,5.53-1.88,2.94-3,4.79-3.1,2.82,1.16,2.79,2.2c-.67,3.9-10.06,6.88-15,7-6.72-.27-7.7-3.57-7.49-7,1.42-12.9,13.14-23.58,15.59-23.9,1.72.07,2.83.94,2.68,3.7-.18,2.05-.72,4-2.52,4.48C333.06,452.07,329.91,460.63,329.45,465.34Z" transform="translate(-40.27 -247.6)"/><path class="cls-5" d="M535.58,491.51a11.05,11.05,0,0,0-1.36-1.58,8.32,8.32,0,0,0,1.47-4.5c.06-.81.18-2.19.33-3.78.3-3.29.7-7.78,1-12,.24-4,.7-7.52,1-9.65.13-1,.2-1.59.23-2a8.93,8.93,0,0,0-14.89-7.44,8.81,8.81,0,0,0-3.17,5.87c-.07,1-.06,3.06,0,6.65s0,7.75-.08,9.38c-.15,2-.3,5.86-.41,8.94-.07,1.88-.14,3.65-.18,4.16a5.32,5.32,0,0,0,.91,3.75,8.28,8.28,0,0,0-4.19,6.45,7.8,7.8,0,0,0,1.8,6c1.82,2.12,4.69,3.26,8.79,3.48,5.26.28,10.84-1.95,11.32-6.75A10,10,0,0,0,535.58,491.51Z" transform="translate(-40.27 -247.6)"/><path class="cls-4" d="M529.36,452.91a4.26,4.26,0,0,1,4.15,4.72c-.08,1.07-.87,6-1.21,11.72-.39,6.28-1.11,13.21-1.3,15.74-.12,1.8-1,3.31-3,3.26-2.94-.05-3.83-2.08-3.72-3.61s.22-8.71.45-12,0-14.08.13-16A4.8,4.8,0,0,1,529.36,452.91Zm-1.91,38.94c3.2.2,5.81,4.2,5.46,6-.27,1.43-2.95,2.42-5.75,2.27-3.8-.2-5.79-1.43-5.55-3.86C521.79,494.47,525.23,491.71,527.45,491.85Z" transform="translate(-40.27 -247.6)"/></svg>