<svg id="Layer_1" data-name="Layer 1" xmlns="http://www.w3.org/2000/svg" viewBox="0 0 2146.09 2145.75"><defs><style>.cls-1{fill:#231f20;}.cls-1,.cls-2,.cls-3,.cls-4,.cls-5,.cls-6{fill-rule:evenodd;}.cls-2{fill:#f13e2d;}.cls-3{fill:#fefefe;}.cls-4{fill:#a09d9d;}.cls-5{fill:#58585a;}.cls-6{fill:#363638;}.opacity{opacity:0.1};</style></defs><g id="WS3Sdq"><path class="cls-1 opacity" d="M410.53-609C416.84-70.08-22.94,454.7-653.55,460.7-1247.41,466.35-1735.71-9.41-1735.49-609.51c.23-619.41,497.65-1067.95,1057.9-1075.39C-81.55-1692.83,411.71-1212.17,410.53-609Z" transform="translate(1735.49 1685)" /><path class="cls-2 opacity" d="M-1310.92-1429c36.1-31.36,76-57.35,117-81.68,122.7-72.87,254.87-120,396.49-136.55,312.73-36.51,590.37,46.8,827.46,254.8,179.83,157.78,289.8,357,334.8,592,8.25,43,12.6,86.64,15.46,130.36,1,14.79.45,15-13.2,9.51C292.58-690.86,219.81-725.19,144.7-754c-60.08-23-121.46-41.73-184.6-54.2-11.24-2.22-15.9-7-18.74-18.09C-97.24-977-233.53-1089.83-388-1099.63c-159.35-10.13-298.12,71.93-365.57,216.75-4.66,10-10.07,13.2-21,13.53-184.13,5.58-364.5,35-541.45,86-125.19,36.13-247.41,80.71-368.64,128.15-6.29,2.46-12.67,4.71-20.16,7.48-1.85-13.11.13-25.07,1-37.07,17.23-235.06,104.23-440.88,259-618.3,8.1-9.27,16.81-18,25.24-27,3.77,6.4-1.38,10.38-4.31,14.69-26,38.06-45.22,78.95-52.5,124.82-8.67,54.64,1.44,104.4,40.93,145.17,21.48,22.19,48.41,35.92,78.7,42.35,57.69,12.23,113.35,3.91,167.57-17.45a394.74,394.74,0,0,0,134.76-88.19c51.6-51.4,90.07-111.13,99.86-185.35,13.42-101.7-45.64-171.69-137.83-184.77-70.82-10-135.58,9.33-197.12,43C-1296-1432.26-1301.55-1424.13-1310.92-1429Z" transform="translate(1735.49 1685)"/><path class="cls-3 opacity" d="M-1348.22-501.46a2594,2594,0,0,1,299.29-62c67.58-10,135.47-16.82,203.57-21.78,26.25-1.91,52.61-2.43,78.86-4.32,8.28-.6,10.79,3.76,13.67,9.88,46.65,99.41,121.35,168.59,226.41,200.89,126.55,38.91,242.48,14.53,345.87-68.05A326.91,326.91,0,0,0-110-524.94c4.9-7.56,9.64-9.67,18.76-7.76,129.69,27,255.81,66,379.73,112.39,19.1,7.15,37.87,15.26,57.28,21.45,10.16,3.25,10.75,8.52,8.67,17C344-338.91,331.91-296.42,316.33-255c-21.57,57.37-46.6,113.11-78.76,165.43-3.09,5-6.87,9.62-10.33,14.41C216.35-59,200-48.45,185.87-35.71A958.2,958.2,0,0,1,57.14,62.39c-81.45,51.75-168.94,89.52-262,114.78a887.27,887.27,0,0,1-172.08,29.14c-156.81,10.75-307.5-14.88-451.5-78.73A917.89,917.89,0,0,1-1017.78,15.09c-59.06-45.6-112.32-97.33-159-156q-123-154.51-174.39-344.78C-1352.71-491.38-1355.29-497.32-1348.22-501.46Z" transform="translate(1735.49 1685)"/><path class="cls-4 opacity" d="M-1348.22-501.46c-3,3.91-1.72,7.87-.6,12.1a917.58,917.58,0,0,0,105.41,247.93q86.63,141.45,216.79,245C-909.37,96.3-777.41,156.93-631.34,187c47.47,9.77,95.61,14.89,144.17,17.1,124,5.64,244.08-13,360.61-55.06A925.25,925.25,0,0,0,74.18,47.21c49.66-33.16,94.43-72.15,139-111.47,4.43-3.91,9.34-7.28,14-10.91-8.47,22-23.38,40-36.45,59.08C149.35,44.42,100.33,98.55,46.85,148.49a1029.42,1029.42,0,0,1-200,145.73A1030.07,1030.07,0,0,1-420.35,398.3,1046.18,1046.18,0,0,1-589.57,424c-24.56,1.72-49.19,2.25-73.67,2.89-33.82.89-67.88-1.72-101.63-5a1031.59,1031.59,0,0,1-272-64.19c-112.62-43.24-215-103.79-306.37-182.73q-257.25-222.18-337.91-552.29c-2.81-11.47.43-15.43,10.63-19.31,100.63-38.26,202.52-72.6,306.47-100.74C-1358.8-498.71-1353.51-500.07-1348.22-501.46Z" transform="translate(1735.49 1685)"/><path class="cls-5 opacity" d="M-1629.2-654.75c50.26-19.18,100.65-38,151.51-55.55,57.6-19.92,115.39-39.28,174.3-54.75,73.31-19.25,146.83-37.88,221.68-50.61,58-9.87,116.24-18.42,175-23.34,36.76-3.07,73.46-6.5,110.36-7.84,14.81-.53,29.63-2.14,44.48-1.85,7,.13,9.4-3.53,11.64-9.22,28.55-72.43,76.36-129,142.29-169.94a334.78,334.78,0,0,1,139.52-48.47c93.91-10.9,178.85,12.09,253.86,69.09,66.67,50.67,109.39,117.71,128,199.49,2.59,11.37,7.66,15.79,18.5,17.85,110,20.89,213.45,61.18,315.3,106.37C296.77-666,336.81-649.42,376.88-633c7.41,3,11.16,7.16,11.42,14.78,2.23,66.37.34,132.41-15.23,197.44-2.37,9.89-7.71,7.8-14,5.3q-101.25-40.2-205-73.41a2470.35,2470.35,0,0,0-258.21-67.73c-8.74-1.79-11.52,2.51-14.86,8-27.77,45.27-63.8,82.59-108.55,111.14-48.4,30.88-101.06,49-158.62,53.91-82.42,7.07-157.32-13-225.65-58.76-59-39.45-100.64-93.21-127.66-158.36-3.83-9.26-8.74-10.93-17.13-10.4-42.32,2.66-84.75,4.06-127,7.9-55.64,5.06-111.17,11.12-166.54,19.12-76,11-151.13,25.73-225.92,42.46-28,6.27-55.11,16.58-83,23.24-35.05,8.35-69.2,19.59-103.79,29.4-6.09,1.73-11.48,5.81-18.18,5.42-12.83,4.55-24.33-1-35.41-5.73-67.1-28.88-105.9-79.77-116.76-152C-1634-646.5-1634.9-651.58-1629.2-654.75Z" transform="translate(1735.49 1685)"/><path class="cls-3 opacity" d="M-1310.92-1429c5.36,1,8.53-3.23,12.4-5.46,56.34-32.57,116.18-52,182.06-50.34,78,2,140,45.09,160,112.11,11.55,38.75,9.29,77.58-2.32,115.73-27.33,89.77-85.6,155.63-163.06,205.48-60.78,39.11-127,61.1-200.34,57.22-83.66-4.43-145.5-56.27-158-133.37-7-43.29,1.52-84.68,17.9-124.72,9.7-23.73,22.47-45.8,37.19-66.78,2.31-3.29,6.47-5.86,5.55-10.89q15.68-16.7,31.35-33.39C-1365-1388.27-1337.48-1408.1-1310.92-1429Z" transform="translate(1735.49 1685)"/><path class="cls-6 opacity" d="M-1629.2-654.75c-4.64,12.45.3,24.59,3.44,35.81,19.34,69.31,64.17,114.18,133.34,134.41,3.58,1,7.57.66,11.37.94-34.33,11.61-68.73,23-103,34.86-33.09,11.48-66.4,22.46-98.48,36.62-7.79,3.45-9.61-.1-11.31-6.39-5.73-21.23-8.38-43-12.08-64.63-7.22-42.12-4.39-84.58-5.17-126.92-.17-9.44,2.88-14.52,12.18-17.86C-1675.47-636.31-1653.11-647.55-1629.2-654.75Z" transform="translate(1735.49 1685)"/><path class="cls-1 opacity" d="M-406.47-994.5c139.57-1.69,257.39,114.14,255.94,258.26C-151.92-595.79-264-481.31-408.3-481.67c-143.82-.36-255.49-117-255.42-257C-663.65-879-549-996.62-406.47-994.5Z" transform="translate(1735.49 1685)"/><path class="cls-3" d="M-641.94-740.15c1.58-129.94,107.8-234.6,236.53-233.06,132.7,1.59,234.5,107.87,232.67,242.91C-174.46-603.93-283-502-414-503.87-539.33-505.64-643.49-613.6-641.94-740.15Z" transform="translate(1735.49 1685)"/><path class="cls-1 opacity" d="M-406.77-919.09c100.28.54,181.07,82,180.25,181.67s-81.54,179.93-180.93,179.68C-508-558-588.36-639.57-587.58-740.64-586.82-839.21-505.34-919.64-406.77-919.09Z" transform="translate(1735.49 1685)"/><path class="cls-3" d="M-240.76-735.54C-245.31-638.48-321.49-568-417-572.6c-88.36-4.21-161-83.72-156.44-171.24,4.84-93.08,82.25-165.27,172.39-160.79C-310-900.1-236.68-822.74-240.76-735.54Z" transform="translate(1735.49 1685)"/></g></svg>